<svg width="42" height="42" viewBox="0 0 42 42" fill="none" xmlns="http://www.w3.org/2000/svg">
<path fill-rule="evenodd" clip-rule="evenodd" d="M41.9995 21.0966L41.9998 21C41.9998 9.40202 32.5977 0 20.9998 0C10.1754 0 1.26384 8.18954 0.12312 18.7105L11.7897 24.4142C12.3614 23.6184 13.2951 23.1 14.3498 23.1C15.2425 23.1 16.0485 23.4714 16.6217 24.068L25.9 16.4134C25.9196 14.6906 27.3223 13.3 29.0498 13.3C30.6569 13.3 31.983 14.5037 32.1757 16.0587L41.9995 21.0966ZM17.4855 25.9482L26.5992 18.4294C27.1767 19.1434 28.0599 19.6 29.0498 19.6C30.191 19.6 31.1904 18.9931 31.7431 18.0845L41.8773 23.2815C40.7402 33.8063 31.8268 42 20.9998 42C9.40178 42 -0.000244141 32.598 -0.000244141 21C-0.000244141 20.9588 -0.00012575 20.9177 0.000110711 20.8766L11.2014 26.3528C11.2557 28.0449 12.6445 29.4 14.3498 29.4C16.0895 29.4 17.4998 27.9897 17.4998 26.25C17.4998 26.1482 17.4949 26.0475 17.4855 25.9482Z" fill="white"/>
</svg>
